
<svg version="1.1" id="Layer_1" xmlns="http://www.w3.org/2000/svg" xmlns:xlink="http://www.w3.org/1999/xlink" x="0px" y="0px"
	 viewBox="0 0 95.2 34.5" style="enable-background:new 0 0 95.2 34.5;" xml:space="preserve">
<style type="text/css">
	.st0{fill:#202020;enable-background:new    ;}
	.st1{fill:#FFFFFF;}
</style>
<g>
	<path class="st0" d="M77.9,34.5H17.3C7.8,34.5,0,26.8,0,17.3v0C0,7.8,7.8,0,17.3,0h60.7c9.5,0,17.3,7.8,17.3,17.3v0
		C95.2,26.8,87.4,34.5,77.9,34.5z"/>
	<g>
		<path class="st1" d="M26.9,20.8c-1.4-1-2.4-2.1-3.2-3.4c-1,1.7-2,2.9-3.1,3.7l-1.3-1.2c0.9-0.4,1.7-1.2,2.4-2.3
			c0.7-1.1,1.1-2.1,1.1-3.2V13h-3v-1.5h7.8V13h-3v1.4c0,1,0.4,2,1.1,2.9c0.7,1,1.5,1.7,2.4,2.1L26.9,20.8z M29.4,24.3v-14h1.8v14
			H29.4z"/>
		<path class="st1" d="M43.6,17.6c-1.1,0.1-2.1,0.1-3.2,0.2v2.9h-1.8v-2.9c-1.6,0.1-2.9,0.1-4,0.1l-0.3-1.6c3.4,0,6.5-0.1,9.1-0.3
			L43.6,17.6z M39,15.7c-1.1,0-2-0.2-2.6-0.7c-0.7-0.5-1-1.1-1-1.9s0.3-1.4,1-1.9c0.7-0.5,1.6-0.7,2.6-0.7c1.1,0,2,0.2,2.6,0.7
			c0.7,0.5,1,1.1,1,1.9c0,0.8-0.3,1.4-1,1.9C40.9,15.4,40.1,15.7,39,15.7z M36.5,23.9v-4.3h1.8v2.8h8.2v1.5H36.5z M39,11.9
			c-0.6,0-1,0.1-1.3,0.3s-0.5,0.5-0.5,0.8c0,0.3,0.2,0.6,0.5,0.8s0.8,0.3,1.3,0.3c0.6,0,1-0.1,1.3-0.3c0.3-0.2,0.5-0.5,0.5-0.8
			c0-0.3-0.2-0.6-0.5-0.8C40.1,12,39.6,11.9,39,11.9z M44.3,20.9v-1h-2.7v-1.4h2.7v-8.2h1.8v10.7H44.3z"/>
		<path class="st1" d="M49.4,13.7v-1.5h3.4v-1.9h1.8v1.9H58v1.5H49.4z M53.7,21c-1.1,0-2-0.3-2.6-0.9c-0.7-0.6-1-1.4-1-2.4
			c0-1,0.3-1.8,1-2.4c0.7-0.6,1.6-0.9,2.7-0.9c1.1,0,2,0.3,2.7,0.9s1,1.4,1,2.4c0,1-0.3,1.7-1,2.4S54.8,21,53.7,21z M53.7,16
			c-0.6,0-1,0.2-1.4,0.5c-0.3,0.3-0.5,0.8-0.5,1.3c0,0.5,0.2,0.9,0.5,1.3c0.3,0.3,0.8,0.5,1.4,0.5c0.6,0,1-0.2,1.4-0.5
			c0.3-0.3,0.5-0.7,0.5-1.3c0-0.5-0.2-1-0.5-1.3C54.7,16.1,54.3,16,53.7,16z M60.6,17.9v6.4h-1.8v-14h1.8v6.1h2.2v1.5H60.6z"/>
		<path class="st1" d="M72,11.5c0,2-0.6,3.9-1.7,5.6c-1.1,1.7-2.6,3.1-4.6,4.2l-1.4-1.3c1.4-0.5,2.7-1.5,3.8-2.7
			c1.1-1.3,1.8-2.6,2-4.1h-4.9v-1.5H72z M74.1,24.3v-14h1.8v14H74.1z"/>
	</g>
</g>
</svg>
