<?xml version="1.0" encoding="utf-8"?>
<!-- Generator: Adobe Illustrator 25.0.1, SVG Export Plug-In . SVG Version: 6.00 Build 0)  -->
<svg version="1.1" id="Layer_1" xmlns="http://www.w3.org/2000/svg" xmlns:xlink="http://www.w3.org/1999/xlink" x="0px" y="0px"
	 viewBox="0 0 420.6 59.7" style="enable-background:new 0 0 420.6 59.7;" xml:space="preserve">
<style type="text/css">
	.st0{fill:#F16C22;}
	.st1{fill:#00D564;}
</style>
<path class="st0" d="M249.3,4.4l5.7,34l18.7-34h12.9l-10,52.5h-12.2l4.3-22.7l-12.9,22.7h-8.7l-4.2-22.7l-4.3,22.7h-12.2l10-52.5
	H249.3z"/>
<path class="st0" d="M302.8,18.1l-7.4,38.8h-12.2l7.4-38.8H302.8z M305.6,3.3l-2.1,11.2h-12.2l2.1-11.2H305.6z"/>
<path class="st0" d="M326.8,4.4l-10,52.5h-12.2l8.4-44.1h-4.1l1.6-8.4H326.8z"/>
<path class="st0" d="M348.1,4.4l-10,52.5h-12.2l8.4-44.1h-4.1l1.6-8.4H348.1z"/>
<path class="st0" d="M381.8,24.4c2.5,4.5,3,10.2,1.3,17.1h-25.3c-0.5,2.2-0.2,4,0.8,5.4c1,1.4,2.4,2.1,4.1,2.1
	c1.6,0,3.2-0.4,4.6-1.3c1.4-0.9,2.4-1.8,2.9-2.8h12.2c-2.2,3.5-5,6.5-8.6,8.9c-3.6,2.4-7.8,3.6-12.6,3.6c-5.7,0-9.9-1.8-12.5-5.3
	c-2.7-3.5-3.4-8.3-2.3-14.3c1.1-6,3.8-10.9,7.9-14.6c4.1-3.7,9.1-5.6,14.8-5.6C375,17.6,379.3,19.9,381.8,24.4z M362.1,28.1
	c-1.4,1.3-2.3,3-2.7,4.9h13.1c0.3-2.2,0.1-3.9-0.8-5.1c-0.9-1.2-2.4-1.8-4.5-1.8C365.2,26.1,363.5,26.7,362.1,28.1z"/>
<path class="st0" d="M413,7l-2.1,11.1h9.7l-1.6,8.4h-9.7l-3.1,16.1c-0.4,2,0.1,3.5,1.3,4.5c1.3,0.9,3.7,1.4,7.3,1.4l-1.6,8.4
	c-9,0.1-14.7-0.8-17.2-2.6c-2.5-1.8-3.2-5.1-2.3-9.9l3.4-17.8h-7.7l1.6-8.4h7.7L400.8,7H413z"/>
<path class="st0" d="M42.8,7.8c3.6,2.6,5.6,6.2,5.9,10.8H36.3c-0.3-1.9-1.2-3.4-2.5-4.5c-1.4-1.1-3.3-1.7-5.8-1.7
	c-3,0-5.6,1.5-7.8,4.6c-2.1,3-3.2,7.3-3.2,12.9c0,5.9,1.1,10.6,3.2,14.1c2.1,3.5,4.8,5.2,8.2,5.2c2.7,0,4.8-0.8,6.5-2.3
	c1.7-1.6,2.6-3.9,2.9-7h12.4c-0.3,5-2.3,9.2-6,12.7c-3.7,3.4-8.9,5.2-15.5,5.2c-7.1,0-12.9-2.4-17.2-7.3c-4.4-4.8-6.6-11.6-6.6-20.3
	c0-8.5,2.3-15,7-19.5C16.4,6.2,22.1,3.9,29,3.9C34.6,3.9,39.1,5.2,42.8,7.8z"/>
<path class="st0" d="M95.5,11.7c3.5,5.3,5.2,11.6,5.2,18.9c0,7.5-1.9,13.9-5.7,19.2c-3.8,5.3-9.3,7.9-16.5,7.9
	c-8.2,0-14-2.7-17.3-8.2s-5-11.8-5-18.9c0-6.4,1.6-12.5,4.8-18.2s9-8.6,17.5-8.6C86.3,3.7,92,6.4,95.5,11.7z M71,17.1
	c-1.8,3.3-2.6,7.8-2.6,13.5c0,6.1,0.9,10.7,2.8,13.9c1.9,3.2,4.3,4.7,7.3,4.7c3,0,5.5-1.6,7.3-4.7c1.8-3.1,2.8-7.8,2.8-13.9
	c0-6.2-0.9-10.8-2.8-13.8c-1.8-3-4.3-4.6-7.3-4.6C75.3,12.1,72.8,13.8,71,17.1z"/>
<path class="st0" d="M124.8,4.4c9.5,0,15.8,2.6,19.2,7.9c3.3,5.2,5,11.3,5,18.3c0,7.3-1.9,13.6-5.7,18.7c-3.8,5.1-10.1,7.7-18.9,7.7
	h-7c-2.3,0-4.4-0.8-6.2-2.3c-1.8-1.6-2.6-3.7-2.6-6.3V4.4H124.8z M120.7,48.5h5.6c3.1,0,5.6-1.4,7.5-4.3c2-2.9,3-7.5,3-13.9
	c0-6.4-0.9-10.9-2.7-13.5s-4.2-3.9-7.2-3.9h-6.2V48.5z"/>
<path class="st0" d="M187.9,4.4v8.4h-19.1v12.7H186v8.4h-17.2v14.5h19.8v8.4H166c-2.6,0-4.8-0.9-6.6-2.6c-1.8-1.7-2.8-4-2.8-6.8V4.4
	H187.9z"/>
<path class="st1" d="M206.4,13.5v9.8h-10.1v-9.8H206.4z M206.4,40.5v9.8h-10.1v-9.8H206.4z"/>
</svg>
